# MagicaVoxel @ Ephtracy

# group
o 

# material
mtllib Alien.mtl
usemtl palette

# normals
vn -1 0 0
vn 1 0 0
vn 0 0 1
vn 0 0 -1
vn 0 -1 0
vn 0 1 0

# texcoords
vt 0.880859 0.5

# verts
v 1.2 5 -2.7
v 1.2 5 -2.8
v 1.2 5.5 -1.3
v 1.2 5.5 -2.7
v 1.2 5.8 -1.3
v 1.2 5.8 -2.7
v 1.2 6 -2.7
v 1.2 6 -2.8
v 1.3 5 -1.3
v 1.3 5 -2.7
v 1.3 5.5 -1.2
v 1.3 5.5 -1.3
v 1.3 5.5 -2.7
v 1.3 5.8 -1.3
v 1.3 5.8 -2.7
v 1.3 6 -1.2
v 1.3 6 -2.7
v 1.4 4.2 -1.3
v 1.4 4.2 -2.7
v 1.4 5 -1.3
v 1.4 5 -2.7
v 1.7 3.4 -1.3
v 1.7 3.4 -1.6
v 1.7 3.4 -1.7
v 1.7 3.4 -2.3
v 1.7 3.4 -2.4
v 1.7 3.4 -2.7
v 1.7 3.8 -1.6
v 1.7 3.8 -1.7
v 1.7 3.8 -2.3
v 1.7 3.8 -2.4
v 1.7 4.2 -1.3
v 1.7 4.2 -2.7
v 1.8 2 -1.7
v 1.8 2 -1.9
v 1.8 2 -2.1
v 1.8 2 -2.3
v 1.8 2.6 -1.9
v 1.8 2.6 -2.1
v 1.8 3.1 -1.3
v 1.8 3.1 -1.6
v 1.8 3.1 -2.4
v 1.8 3.1 -2.7
v 1.8 3.4 -1.3
v 1.8 3.4 -1.6
v 1.8 3.4 -1.7
v 1.8 3.4 -2.3
v 1.8 3.4 -2.4
v 1.8 3.4 -2.7
v 1.9 3.7 -1.6
v 1.9 3.7 -1.7
v 1.9 3.7 -2.3
v 1.9 3.7 -2.4
v 1.9 3.8 -1.6
v 1.9 3.8 -1.7
v 1.9 3.8 -2.3
v 1.9 3.8 -2.4
v 2.1 2.3 -1.7
v 2.1 2.3 -1.9
v 2.1 2.3 -2.1
v 2.1 2.3 -2.3
v 2.1 2.6 -1.7
v 2.1 2.6 -1.9
v 2.1 2.6 -2.1
v 2.1 2.6 -2.3
v 2.7 4.2 -1.2
v 2.7 4.2 -1.3
v 2.7 4.2 -2.7
v 2.7 4.2 -2.8
v 2.7 5.5 -1.2
v 2.7 5.5 -1.3
v 2.7 5.5 -2.7
v 2.7 5.5 -2.8
v 1.3 5 -2.7
v 1.3 5 -2.8
v 1.3 5.5 -2.7
v 1.3 5.5 -2.8
v 1.9 2.3 -1.7
v 1.9 2.3 -1.9
v 1.9 2.3 -2.1
v 1.9 2.3 -2.3
v 1.9 2.6 -1.7
v 1.9 2.6 -1.9
v 1.9 2.6 -2.1
v 1.9 2.6 -2.3
v 2.1 3.7 -1.6
v 2.1 3.7 -1.7
v 2.1 3.7 -2.3
v 2.1 3.7 -2.4
v 2.1 3.8 -1.6
v 2.1 3.8 -1.7
v 2.1 3.8 -2.3
v 2.1 3.8 -2.4
v 2.2 2 -1.7
v 2.2 2 -1.9
v 2.2 2 -2.1
v 2.2 2 -2.3
v 2.2 2.6 -1.9
v 2.2 2.6 -2.1
v 2.2 3.1 -1.3
v 2.2 3.1 -1.6
v 2.2 3.1 -2.4
v 2.2 3.1 -2.7
v 2.2 3.4 -1.3
v 2.2 3.4 -1.6
v 2.2 3.4 -1.7
v 2.2 3.4 -2.3
v 2.2 3.4 -2.4
v 2.2 3.4 -2.7
v 2.3 3.4 -1.3
v 2.3 3.4 -1.6
v 2.3 3.4 -1.7
v 2.3 3.4 -2.3
v 2.3 3.4 -2.4
v 2.3 3.4 -2.7
v 2.3 3.8 -1.6
v 2.3 3.8 -1.7
v 2.3 3.8 -2.3
v 2.3 3.8 -2.4
v 2.3 4.2 -1.3
v 2.3 4.2 -2.7
v 2.7 4.2 -1.3
v 2.7 4.2 -2.7
v 2.7 5.5 -1.3
v 2.7 5.5 -2.7
v 2.7 5.8 -1.3
v 2.7 5.8 -2.7
v 2.7 6 -1.3
v 2.7 6 -2.7
v 2.8 4.2 -1.2
v 2.8 4.2 -1.3
v 2.8 4.2 -2.7
v 2.8 4.2 -2.8
v 2.8 5.5 -1.3
v 2.8 5.5 -2.7
v 2.8 5.8 -1.3
v 2.8 5.8 -2.7
v 2.8 6 -1.2
v 2.8 6 -1.3
v 2.8 6 -2.7
v 2.8 6 -2.8
v 1.3 5.5 -1.2
v 1.3 6 -1.2
v 2.7 4.2 -1.2
v 2.7 5.5 -1.2
v 2.8 4.2 -1.2
v 2.8 6 -1.2
v 1.2 5.5 -1.3
v 1.2 5.8 -1.3
v 1.3 5 -1.3
v 1.3 5.5 -1.3
v 1.3 5.8 -1.3
v 1.4 4.2 -1.3
v 1.4 5 -1.3
v 1.7 3.4 -1.3
v 1.7 4.2 -1.3
v 1.8 3.1 -1.3
v 1.8 3.4 -1.3
v 2.2 3.1 -1.3
v 2.2 3.4 -1.3
v 2.3 3.4 -1.3
v 2.3 4.2 -1.3
v 2.7 4.2 -1.3
v 2.7 5.5 -1.3
v 1.7 3.4 -1.7
v 1.7 3.8 -1.7
v 1.8 2 -1.7
v 1.8 3.4 -1.7
v 1.9 2.3 -1.7
v 1.9 2.6 -1.7
v 1.9 3.7 -1.7
v 1.9 3.8 -1.7
v 2.1 2.3 -1.7
v 2.1 2.6 -1.7
v 2.1 3.7 -1.7
v 2.1 3.8 -1.7
v 2.2 2 -1.7
v 2.2 3.4 -1.7
v 2.3 3.4 -1.7
v 2.3 3.8 -1.7
v 1.8 2 -2.1
v 1.8 2.6 -2.1
v 1.9 2.3 -2.1
v 1.9 2.6 -2.1
v 2.1 2.3 -2.1
v 2.1 2.6 -2.1
v 2.2 2 -2.1
v 2.2 2.6 -2.1
v 1.7 3.4 -2.4
v 1.7 3.8 -2.4
v 1.8 3.1 -2.4
v 1.8 3.4 -2.4
v 1.9 3.7 -2.4
v 1.9 3.8 -2.4
v 2.1 3.7 -2.4
v 2.1 3.8 -2.4
v 2.2 3.1 -2.4
v 2.2 3.4 -2.4
v 2.3 3.4 -2.4
v 2.3 3.8 -2.4
v 1.2 5 -2.7
v 1.2 5.5 -2.7
v 1.2 5.8 -2.7
v 1.2 6 -2.7
v 1.3 5 -2.7
v 1.3 5.5 -2.7
v 1.3 5.8 -2.7
v 1.3 6 -2.7
v 2.7 4.2 -2.7
v 2.7 5.5 -2.7
v 2.7 5.8 -2.7
v 2.7 6 -2.7
v 2.8 4.2 -2.7
v 2.8 5.5 -2.7
v 2.8 5.8 -2.7
v 2.8 6 -2.7
v 2.7 4.2 -1.3
v 2.7 5.5 -1.3
v 2.7 5.8 -1.3
v 2.7 6 -1.3
v 2.8 4.2 -1.3
v 2.8 5.5 -1.3
v 2.8 5.8 -1.3
v 2.8 6 -1.3
v 1.7 3.4 -1.6
v 1.7 3.8 -1.6
v 1.8 3.1 -1.6
v 1.8 3.4 -1.6
v 1.9 3.7 -1.6
v 1.9 3.8 -1.6
v 2.1 3.7 -1.6
v 2.1 3.8 -1.6
v 2.2 3.1 -1.6
v 2.2 3.4 -1.6
v 2.3 3.4 -1.6
v 2.3 3.8 -1.6
v 1.8 2 -1.9
v 1.8 2.6 -1.9
v 1.9 2.3 -1.9
v 1.9 2.6 -1.9
v 2.1 2.3 -1.9
v 2.1 2.6 -1.9
v 2.2 2 -1.9
v 2.2 2.6 -1.9
v 1.7 3.4 -2.3
v 1.7 3.8 -2.3
v 1.8 2 -2.3
v 1.8 3.4 -2.3
v 1.9 2.3 -2.3
v 1.9 2.6 -2.3
v 1.9 3.7 -2.3
v 1.9 3.8 -2.3
v 2.1 2.3 -2.3
v 2.1 2.6 -2.3
v 2.1 3.7 -2.3
v 2.1 3.8 -2.3
v 2.2 2 -2.3
v 2.2 3.4 -2.3
v 2.3 3.4 -2.3
v 2.3 3.8 -2.3
v 1.3 5 -2.7
v 1.3 5.5 -2.7
v 1.4 4.2 -2.7
v 1.4 5 -2.7
v 1.7 3.4 -2.7
v 1.7 4.2 -2.7
v 1.8 3.1 -2.7
v 1.8 3.4 -2.7
v 2.2 3.1 -2.7
v 2.2 3.4 -2.7
v 2.3 3.4 -2.7
v 2.3 4.2 -2.7
v 2.7 4.2 -2.7
v 2.7 5.5 -2.7
v 1.2 5 -2.8
v 1.2 6 -2.8
v 1.3 5 -2.8
v 1.3 5.5 -2.8
v 2.7 4.2 -2.8
v 2.7 5.5 -2.8
v 2.8 4.2 -2.8
v 2.8 6 -2.8
v 1.8 2 -1.7
v 2.2 2 -1.7
v 1.8 2 -1.9
v 2.2 2 -1.9
v 1.8 2 -2.1
v 2.2 2 -2.1
v 1.8 2 -2.3
v 2.2 2 -2.3
v 1.9 2.6 -1.7
v 2.1 2.6 -1.7
v 1.8 2.6 -1.9
v 1.9 2.6 -1.9
v 2.1 2.6 -1.9
v 2.2 2.6 -1.9
v 1.8 2.6 -2.1
v 1.9 2.6 -2.1
v 2.1 2.6 -2.1
v 2.2 2.6 -2.1
v 1.9 2.6 -2.3
v 2.1 2.6 -2.3
v 1.8 3.1 -1.3
v 2.2 3.1 -1.3
v 1.8 3.1 -1.6
v 2.2 3.1 -1.6
v 1.8 3.1 -2.4
v 2.2 3.1 -2.4
v 1.8 3.1 -2.7
v 2.2 3.1 -2.7
v 1.7 3.4 -1.3
v 1.8 3.4 -1.3
v 2.2 3.4 -1.3
v 2.3 3.4 -1.3
v 1.7 3.4 -1.6
v 1.8 3.4 -1.6
v 2.2 3.4 -1.6
v 2.3 3.4 -1.6
v 1.7 3.4 -1.7
v 1.8 3.4 -1.7
v 2.2 3.4 -1.7
v 2.3 3.4 -1.7
v 1.7 3.4 -2.3
v 1.8 3.4 -2.3
v 2.2 3.4 -2.3
v 2.3 3.4 -2.3
v 1.7 3.4 -2.4
v 1.8 3.4 -2.4
v 2.2 3.4 -2.4
v 2.3 3.4 -2.4
v 1.7 3.4 -2.7
v 1.8 3.4 -2.7
v 2.2 3.4 -2.7
v 2.3 3.4 -2.7
v 1.9 3.7 -1.6
v 2.1 3.7 -1.6
v 1.9 3.7 -1.7
v 2.1 3.7 -1.7
v 1.9 3.7 -2.3
v 2.1 3.7 -2.3
v 1.9 3.7 -2.4
v 2.1 3.7 -2.4
v 1.7 3.8 -1.6
v 1.9 3.8 -1.6
v 2.1 3.8 -1.6
v 2.3 3.8 -1.6
v 1.7 3.8 -1.7
v 1.9 3.8 -1.7
v 2.1 3.8 -1.7
v 2.3 3.8 -1.7
v 1.7 3.8 -2.3
v 1.9 3.8 -2.3
v 2.1 3.8 -2.3
v 2.3 3.8 -2.3
v 1.7 3.8 -2.4
v 1.9 3.8 -2.4
v 2.1 3.8 -2.4
v 2.3 3.8 -2.4
v 2.7 4.2 -1.2
v 2.8 4.2 -1.2
v 1.4 4.2 -1.3
v 1.7 4.2 -1.3
v 2.3 4.2 -1.3
v 2.7 4.2 -1.3
v 2.8 4.2 -1.3
v 1.4 4.2 -2.7
v 1.7 4.2 -2.7
v 2.3 4.2 -2.7
v 2.7 4.2 -2.7
v 2.8 4.2 -2.7
v 2.7 4.2 -2.8
v 2.8 4.2 -2.8
v 1.3 5 -1.3
v 1.4 5 -1.3
v 1.2 5 -2.7
v 1.3 5 -2.7
v 1.4 5 -2.7
v 1.2 5 -2.8
v 1.3 5 -2.8
v 1.3 5.5 -1.2
v 2.7 5.5 -1.2
v 1.2 5.5 -1.3
v 1.3 5.5 -1.3
v 2.7 5.5 -1.3
v 2.8 5.5 -1.3
v 1.2 5.5 -2.7
v 1.3 5.5 -2.7
v 2.7 5.5 -2.7
v 2.8 5.5 -2.7
v 1.3 5.5 -2.8
v 2.7 5.5 -2.8
v 1.9 2.3 -1.7
v 2.1 2.3 -1.7
v 1.9 2.3 -1.9
v 2.1 2.3 -1.9
v 1.9 2.3 -2.1
v 2.1 2.3 -2.1
v 1.9 2.3 -2.3
v 2.1 2.3 -2.3
v 1.2 5.8 -1.3
v 1.3 5.8 -1.3
v 2.7 5.8 -1.3
v 2.8 5.8 -1.3
v 1.2 5.8 -2.7
v 1.3 5.8 -2.7
v 2.7 5.8 -2.7
v 2.8 5.8 -2.7
v 1.3 6 -1.2
v 2.8 6 -1.2
v 2.7 6 -1.3
v 2.8 6 -1.3
v 1.2 6 -2.7
v 1.3 6 -2.7
v 2.7 6 -2.7
v 2.8 6 -2.7
v 1.2 6 -2.8
v 2.8 6 -2.8

# faces
f 4/1/1 2/1/1 1/1/1
f 5/1/1 4/1/1 3/1/1
f 6/1/1 2/1/1 4/1/1
f 6/1/1 4/1/1 5/1/1
f 7/1/1 2/1/1 6/1/1
f 8/1/1 2/1/1 7/1/1
f 12/1/1 10/1/1 9/1/1
f 13/1/1 10/1/1 12/1/1
f 14/1/1 12/1/1 11/1/1
f 16/1/1 14/1/1 11/1/1
f 16/1/1 15/1/1 14/1/1
f 17/1/1 15/1/1 16/1/1
f 20/1/1 19/1/1 18/1/1
f 21/1/1 19/1/1 20/1/1
f 28/1/1 23/1/1 22/1/1
f 29/1/1 25/1/1 24/1/1
f 30/1/1 25/1/1 29/1/1
f 31/1/1 27/1/1 26/1/1
f 32/1/1 30/1/1 29/1/1
f 32/1/1 31/1/1 30/1/1
f 32/1/1 28/1/1 22/1/1
f 32/1/1 29/1/1 28/1/1
f 33/1/1 27/1/1 31/1/1
f 33/1/1 31/1/1 32/1/1
f 38/1/1 35/1/1 34/1/1
f 39/1/1 37/1/1 36/1/1
f 44/1/1 41/1/1 40/1/1
f 45/1/1 41/1/1 44/1/1
f 46/1/1 38/1/1 34/1/1
f 46/1/1 39/1/1 38/1/1
f 47/1/1 37/1/1 39/1/1
f 47/1/1 39/1/1 46/1/1
f 48/1/1 43/1/1 42/1/1
f 49/1/1 43/1/1 48/1/1
f 54/1/1 51/1/1 50/1/1
f 55/1/1 51/1/1 54/1/1
f 56/1/1 53/1/1 52/1/1
f 57/1/1 53/1/1 56/1/1
f 62/1/1 59/1/1 58/1/1
f 63/1/1 59/1/1 62/1/1
f 64/1/1 61/1/1 60/1/1
f 65/1/1 61/1/1 64/1/1
f 70/1/1 67/1/1 66/1/1
f 71/1/1 67/1/1 70/1/1
f 72/1/1 69/1/1 68/1/1
f 73/1/1 69/1/1 72/1/1
f 74/1/2 75/1/2 76/1/2
f 76/1/2 75/1/2 77/1/2
f 78/1/2 79/1/2 82/1/2
f 82/1/2 79/1/2 83/1/2
f 80/1/2 81/1/2 84/1/2
f 84/1/2 81/1/2 85/1/2
f 86/1/2 87/1/2 90/1/2
f 90/1/2 87/1/2 91/1/2
f 88/1/2 89/1/2 92/1/2
f 92/1/2 89/1/2 93/1/2
f 94/1/2 95/1/2 98/1/2
f 96/1/2 97/1/2 99/1/2
f 100/1/2 101/1/2 104/1/2
f 104/1/2 101/1/2 105/1/2
f 94/1/2 98/1/2 106/1/2
f 98/1/2 99/1/2 106/1/2
f 99/1/2 97/1/2 107/1/2
f 106/1/2 99/1/2 107/1/2
f 102/1/2 103/1/2 108/1/2
f 108/1/2 103/1/2 109/1/2
f 110/1/2 111/1/2 116/1/2
f 112/1/2 113/1/2 117/1/2
f 117/1/2 113/1/2 118/1/2
f 114/1/2 115/1/2 119/1/2
f 117/1/2 118/1/2 120/1/2
f 118/1/2 119/1/2 120/1/2
f 110/1/2 116/1/2 120/1/2
f 116/1/2 117/1/2 120/1/2
f 119/1/2 115/1/2 121/1/2
f 120/1/2 119/1/2 121/1/2
f 122/1/2 123/1/2 124/1/2
f 124/1/2 123/1/2 125/1/2
f 126/1/2 127/1/2 128/1/2
f 128/1/2 127/1/2 129/1/2
f 130/1/2 131/1/2 134/1/2
f 132/1/2 133/1/2 135/1/2
f 130/1/2 134/1/2 136/1/2
f 134/1/2 135/1/2 136/1/2
f 135/1/2 133/1/2 137/1/2
f 136/1/2 135/1/2 137/1/2
f 130/1/2 136/1/2 138/1/2
f 138/1/2 136/1/2 139/1/2
f 137/1/2 133/1/2 140/1/2
f 140/1/2 133/1/2 141/1/2
f 145/1/3 143/1/3 142/1/3
f 146/1/3 145/1/3 144/1/3
f 147/1/3 143/1/3 145/1/3
f 147/1/3 145/1/3 146/1/3
f 151/1/3 149/1/3 148/1/3
f 152/1/3 149/1/3 151/1/3
f 154/1/3 151/1/3 150/1/3
f 156/1/3 154/1/3 153/1/3
f 158/1/3 156/1/3 155/1/3
f 159/1/3 158/1/3 157/1/3
f 160/1/3 156/1/3 158/1/3
f 160/1/3 158/1/3 159/1/3
f 161/1/3 156/1/3 160/1/3
f 162/1/3 154/1/3 156/1/3
f 162/1/3 156/1/3 161/1/3
f 163/1/3 154/1/3 162/1/3
f 164/1/3 151/1/3 154/1/3
f 164/1/3 154/1/3 163/1/3
f 168/1/3 166/1/3 165/1/3
f 169/1/3 168/1/3 167/1/3
f 170/1/3 168/1/3 169/1/3
f 171/1/3 166/1/3 168/1/3
f 171/1/3 168/1/3 170/1/3
f 172/1/3 166/1/3 171/1/3
f 173/1/3 169/1/3 167/1/3
f 174/1/3 171/1/3 170/1/3
f 175/1/3 171/1/3 174/1/3
f 177/1/3 173/1/3 167/1/3
f 177/1/3 176/1/3 175/1/3
f 177/1/3 175/1/3 174/1/3
f 177/1/3 174/1/3 173/1/3
f 178/1/3 176/1/3 177/1/3
f 179/1/3 176/1/3 178/1/3
f 180/1/3 176/1/3 179/1/3
f 183/1/3 182/1/3 181/1/3
f 184/1/3 182/1/3 183/1/3
f 185/1/3 183/1/3 181/1/3
f 187/1/3 185/1/3 181/1/3
f 187/1/3 186/1/3 185/1/3
f 188/1/3 186/1/3 187/1/3
f 192/1/3 190/1/3 189/1/3
f 193/1/3 190/1/3 192/1/3
f 193/1/3 192/1/3 191/1/3
f 194/1/3 190/1/3 193/1/3
f 195/1/3 193/1/3 191/1/3
f 197/1/3 195/1/3 191/1/3
f 197/1/3 196/1/3 195/1/3
f 198/1/3 196/1/3 197/1/3
f 199/1/3 196/1/3 198/1/3
f 200/1/3 196/1/3 199/1/3
f 205/1/3 202/1/3 201/1/3
f 206/1/3 202/1/3 205/1/3
f 207/1/3 204/1/3 203/1/3
f 208/1/3 204/1/3 207/1/3
f 213/1/3 210/1/3 209/1/3
f 214/1/3 210/1/3 213/1/3
f 215/1/3 212/1/3 211/1/3
f 216/1/3 212/1/3 215/1/3
f 217/1/4 218/1/4 221/1/4
f 221/1/4 218/1/4 222/1/4
f 219/1/4 220/1/4 223/1/4
f 223/1/4 220/1/4 224/1/4
f 225/1/4 226/1/4 228/1/4
f 228/1/4 226/1/4 229/1/4
f 227/1/4 228/1/4 229/1/4
f 229/1/4 226/1/4 230/1/4
f 227/1/4 229/1/4 231/1/4
f 227/1/4 231/1/4 233/1/4
f 231/1/4 232/1/4 233/1/4
f 233/1/4 232/1/4 234/1/4
f 234/1/4 232/1/4 235/1/4
f 235/1/4 232/1/4 236/1/4
f 237/1/4 238/1/4 239/1/4
f 239/1/4 238/1/4 240/1/4
f 237/1/4 239/1/4 241/1/4
f 237/1/4 241/1/4 243/1/4
f 241/1/4 242/1/4 243/1/4
f 243/1/4 242/1/4 244/1/4
f 245/1/4 246/1/4 248/1/4
f 247/1/4 248/1/4 249/1/4
f 249/1/4 248/1/4 250/1/4
f 248/1/4 246/1/4 251/1/4
f 250/1/4 248/1/4 251/1/4
f 251/1/4 246/1/4 252/1/4
f 247/1/4 249/1/4 253/1/4
f 250/1/4 251/1/4 254/1/4
f 254/1/4 251/1/4 255/1/4
f 247/1/4 253/1/4 257/1/4
f 255/1/4 256/1/4 257/1/4
f 254/1/4 255/1/4 257/1/4
f 253/1/4 254/1/4 257/1/4
f 257/1/4 256/1/4 258/1/4
f 258/1/4 256/1/4 259/1/4
f 259/1/4 256/1/4 260/1/4
f 261/1/4 262/1/4 264/1/4
f 263/1/4 264/1/4 266/1/4
f 265/1/4 266/1/4 268/1/4
f 267/1/4 268/1/4 269/1/4
f 268/1/4 266/1/4 270/1/4
f 269/1/4 268/1/4 270/1/4
f 270/1/4 266/1/4 271/1/4
f 266/1/4 264/1/4 272/1/4
f 271/1/4 266/1/4 272/1/4
f 272/1/4 264/1/4 273/1/4
f 264/1/4 262/1/4 274/1/4
f 273/1/4 264/1/4 274/1/4
f 275/1/4 276/1/4 277/1/4
f 277/1/4 276/1/4 278/1/4
f 278/1/4 276/1/4 280/1/4
f 279/1/4 280/1/4 281/1/4
f 280/1/4 276/1/4 282/1/4
f 281/1/4 280/1/4 282/1/4
f 285/1/5 284/1/5 283/1/5
f 286/1/5 284/1/5 285/1/5
f 289/1/5 288/1/5 287/1/5
f 290/1/5 288/1/5 289/1/5
f 294/1/5 292/1/5 291/1/5
f 295/1/5 292/1/5 294/1/5
f 297/1/5 294/1/5 293/1/5
f 297/1/5 296/1/5 295/1/5
f 297/1/5 295/1/5 294/1/5
f 298/1/5 296/1/5 297/1/5
f 299/1/5 296/1/5 298/1/5
f 300/1/5 296/1/5 299/1/5
f 301/1/5 299/1/5 298/1/5
f 302/1/5 299/1/5 301/1/5
f 305/1/5 304/1/5 303/1/5
f 306/1/5 304/1/5 305/1/5
f 309/1/5 308/1/5 307/1/5
f 310/1/5 308/1/5 309/1/5
f 315/1/5 312/1/5 311/1/5
f 316/1/5 312/1/5 315/1/5
f 317/1/5 314/1/5 313/1/5
f 318/1/5 314/1/5 317/1/5
f 323/1/5 320/1/5 319/1/5
f 324/1/5 320/1/5 323/1/5
f 325/1/5 322/1/5 321/1/5
f 326/1/5 322/1/5 325/1/5
f 331/1/5 328/1/5 327/1/5
f 332/1/5 328/1/5 331/1/5
f 333/1/5 330/1/5 329/1/5
f 334/1/5 330/1/5 333/1/5
f 337/1/5 336/1/5 335/1/5
f 338/1/5 336/1/5 337/1/5
f 341/1/5 340/1/5 339/1/5
f 342/1/5 340/1/5 341/1/5
f 347/1/5 344/1/5 343/1/5
f 348/1/5 344/1/5 347/1/5
f 349/1/5 346/1/5 345/1/5
f 350/1/5 346/1/5 349/1/5
f 355/1/5 352/1/5 351/1/5
f 356/1/5 352/1/5 355/1/5
f 357/1/5 354/1/5 353/1/5
f 358/1/5 354/1/5 357/1/5
f 364/1/5 360/1/5 359/1/5
f 365/1/5 360/1/5 364/1/5
f 366/1/5 362/1/5 361/1/5
f 367/1/5 362/1/5 366/1/5
f 368/1/5 364/1/5 363/1/5
f 369/1/5 364/1/5 368/1/5
f 371/1/5 370/1/5 369/1/5
f 372/1/5 370/1/5 371/1/5
f 376/1/5 374/1/5 373/1/5
f 377/1/5 374/1/5 376/1/5
f 378/1/5 376/1/5 375/1/5
f 379/1/5 376/1/5 378/1/5
f 383/1/5 381/1/5 380/1/5
f 384/1/5 381/1/5 383/1/5
f 386/1/5 383/1/5 382/1/5
f 387/1/5 383/1/5 386/1/5
f 388/1/5 385/1/5 384/1/5
f 389/1/5 385/1/5 388/1/5
f 390/1/5 388/1/5 387/1/5
f 391/1/5 388/1/5 390/1/5
f 392/1/6 393/1/6 394/1/6
f 394/1/6 393/1/6 395/1/6
f 396/1/6 397/1/6 398/1/6
f 398/1/6 397/1/6 399/1/6
f 400/1/6 401/1/6 404/1/6
f 404/1/6 401/1/6 405/1/6
f 402/1/6 403/1/6 406/1/6
f 406/1/6 403/1/6 407/1/6
f 408/1/6 409/1/6 410/1/6
f 410/1/6 409/1/6 411/1/6
f 408/1/6 410/1/6 413/1/6
f 413/1/6 410/1/6 414/1/6
f 412/1/6 413/1/6 416/1/6
f 414/1/6 415/1/6 416/1/6
f 413/1/6 414/1/6 416/1/6
f 416/1/6 415/1/6 417/1/6
